# xmcd
#
# Track frame offsets:
#	150
#	14747
#	28731
#	41790
#	55136
#	68351
#	80766
#	94495
#	105940
#	118489
#	131590
#	144876
#	157962
#	169761
#	183404
#
# Disc length: 2629 seconds
#
# Revision: 3
# Processed by: cddbd v1.5.2PL0 Copyright (c) Steve Scherf et al.
# Submitted via: EasyCDDAExtractor 10.0.3.1
#
DISCID=cc0a430f
DTITLE=Various Artist - Best Of Blues - Disc 3
DYEAR=2004
DGENRE=Blues
TTITLE0=Sonny Boy Williamson - Susie Q
TTITLE1=Leadbelly - Midnight Special
TTITLE2=Brownie McGhee - Born For Bad Luck
TTITLE3=John Lee Hooker - Union Station Blues
TTITLE4=Tampa Red - Don't You Lie To Me
TTITLE5=Roy Milton - Big Fat Mama
TTITLE6=Big Bill Broonzy - Key To The Highway
TTITLE7=Lightning Hopkins - Let Me Play With Your Poodle
TTITLE8=Big Joe Williams - Baby Please Don't Go
TTITLE9=Arthur 'Big Boy' Crudup - That's All Right
TTITLE10=Big Joe Turner - Piney Brown Blues
TTITLE11=T-Bone Walker - Mean Old World
TTITLE12=Sonny Terry - Harmonica And Washboard Breakdown
TTITLE13=Robert Johnson - Sweet Home Chicago
TTITLE14=Willie Dixon - If The Sea Was Wiskey
EXTD=
EXTT0=
EXTT1=
EXTT2=
EXTT3=
EXTT4=
EXTT5=
EXTT6=
EXTT7=
EXTT8=
EXTT9=
EXTT10=
EXTT11=
EXTT12=
EXTT13=
EXTT14=
PLAYORDER=
